<svg width="512" height="512" viewBox="0 0 512 512" fill="none" xmlns="http://www.w3.org/2000/svg" role="img" aria-label="HBCC Chess Events">
  <defs>
    <linearGradient id="g" x1="0" y1="0" x2="512" y2="512" gradientUnits="userSpaceOnUse">
      <stop offset="0" stop-color="#6366F1"/>
      <stop offset="1" stop-color="#4338CA"/>
    </linearGradient>
    <filter id="s" x="-10%" y="-10%" width="120%" height="120%">
      <feDropShadow dx="0" dy="8" stdDeviation="12" flood-color="#1f2937" flood-opacity="0.25"/>
    </filter>
  </defs>

  <!-- Badge -->
  <rect x="32" y="32" width="448" height="448" rx="96" fill="url(#g)" />

  <!-- Pawn (simple, legible silhouette) -->
  <g transform="translate(0,10)" filter="url(#s)">
    <!-- Head -->
    <circle cx="256" cy="180" r="46" fill="#FFFFFF"/>
    <!-- Neck -->
    <rect x="224" y="210" width="64" height="28" rx="10" fill="#FFFFFF"/>
    <!-- Shoulders -->
    <rect x="196" y="238" width="120" height="34" rx="17" fill="#FFFFFF"/>
    <!-- Body (tapered) -->
    <path d="M186 272c0-10 8-18 18-18h104c10 0 18 8 18 18 0 22-10 54-40 76H226c-30-22-40-54-40-76z" fill="#FFFFFF"/>
    <!-- Base top -->
    <rect x="168" y="356" width="176" height="30" rx="12" fill="#FFFFFF"/>
    <!-- Base bottom -->
    <rect x="148" y="386" width="216" height="36" rx="14" fill="#FFFFFF"/>
  </g>

  <!-- Calendar check overlay (subtle event cue) -->
  <g transform="translate(328,328)">
    <rect x="0" y="0" width="96" height="96" rx="20" fill="#EEF2FF" opacity="0.95"/>
    <!-- Binding dots -->
    <circle cx="24" cy="18" r="5" fill="#4F46E5"/>
    <circle cx="72" cy="18" r="5" fill="#4F46E5"/>
    <!-- Check mark -->
    <path d="M26 56l16 16 32-32" fill="none" stroke="#10B981" stroke-width="12" stroke-linecap="round" stroke-linejoin="round"/>
  </g>
</svg>